<svg width="503" height="45" viewBox="0 0 503 45" fill="none" xmlns="http://www.w3.org/2000/svg">
<path d="M350 35C350 40.5228 354.477 45 360 45H493C498.523 45 503 40.5228 503 35V10C503 4.47715 498.523 0 493 0H360C354.477 0 350 4.47715 350 10V35Z" fill="#78C5F1"/>
<path d="M175 35C175 40.5228 179.477 45 185 45H318C323.523 45 328 40.5228 328 35V10C328 4.47715 323.523 0 318 0H185C179.477 0 175 4.47715 175 10V35Z" fill="#78C5F1"/>
<path d="M0 35C0 40.5228 4.47715 45 10 45H143C148.523 45 153 40.5228 153 35V10C153 4.47715 148.523 0 143 0H10C4.47715 0 0 4.47715 0 10V35Z" fill="#78C5F1"/>
</svg>
